<?xml version="1.0" encoding="utf-8"?>
<!-- Generator: Adobe Illustrator 16.0.3, SVG Export Plug-In . SVG Version: 6.00 Build 0)  -->
<!DOCTYPE svg PUBLIC "-//W3C//DTD SVG 1.1//EN" "http://www.w3.org/Graphics/SVG/1.1/DTD/svg11.dtd">
<svg version="1.1" id="Layer_1" xmlns="http://www.w3.org/2000/svg" xmlns:xlink="http://www.w3.org/1999/xlink" x="0px" y="0px"
	 width="2000px" height="2000px" viewBox="0 0 2000 2000" enable-background="new 0 0 2000 2000" xml:space="preserve">
<g>
	<g>
		<path fill="#D1C8CE" d="M703.007,1328.485v-50.041l-63.042-17.511c-3.508-13.04-8.618-25.422-15.112-36.921l32.09-56.775
			l-35.384-35.383l-56.45,31.906c-11.633-6.697-24.19-11.965-37.428-15.587l-17.329-62.384h-50.04l-17.329,62.384
			c-13.238,3.622-25.796,8.89-37.429,15.587l-56.45-31.907l-35.384,35.384l32.09,56.775c-6.494,11.499-11.604,23.882-15.114,36.921
			l-63.04,17.511v50.041l63.548,17.652c3.576,12.689,8.659,24.748,15.074,35.95l-32.559,57.604l35.383,35.384l57.932-32.744
			c11.069,6.217,22.949,11.157,35.446,14.62l17.83,64.188h50.04l17.83-64.188c12.497-3.463,24.376-8.403,35.446-14.62l57.931,32.744
			l35.384-35.384l-32.559-57.604c6.417-11.206,11.517-23.261,15.093-35.956L703.007,1328.485z M485.333,1397.707
			c-52.509,0-95.076-42.566-95.076-95.076c0-52.509,42.567-95.076,95.076-95.076s95.076,42.567,95.076,95.076
			C580.409,1355.141,537.842,1397.707,485.333,1397.707z"/>
		<path fill="#D1C8CE" d="M308.016,1250.593l4.996-21.278l-25.059-13.74c-0.19-5.895-1.127-11.67-2.74-17.207l19.313-20.938
			l-11.514-18.578l-27.189,7.932c-4.278-4.009-9.092-7.503-14.359-10.364l-1.141-28.257l-21.278-4.995l-13.596,24.797
			c-5.991,0.219-11.856,1.205-17.471,2.891l-20.818-19.202l-18.578,11.514l7.977,27.345c-3.909,4.242-7.318,8.997-10.112,14.191
			l-28.554,1.152l-4.996,21.278l25.26,13.851c0.254,5.753,1.211,11.388,2.821,16.791l-19.595,21.244l11.514,18.579l27.902-8.141
			c4.086,3.749,8.645,7.035,13.613,9.755l1.174,29.074l21.278,4.995l13.989-25.514c5.66-0.225,11.205-1.14,16.532-2.678
			l21.365,19.706l18.579-11.514l-8.094-27.744c3.847-4.125,7.219-8.741,10.007-13.783L308.016,1250.593z M208.546,1258.297
			c-22.328-5.242-36.179-27.592-30.937-49.92c5.242-22.328,27.592-36.179,49.919-30.937c22.328,5.242,36.179,27.592,30.937,49.92
			C253.224,1249.688,230.874,1263.539,208.546,1258.297z"/>
	</g>
	<g>
		<rect x="672.916" y="495.622" fill="#9E8FAE" width="2.524" height="982.769"/>
		<g>
			<path fill="#2191F2" d="M385.45,552.182L385.45,552.182c-5.472,0-9.909-4.437-9.909-9.909l0,0c0-5.473,4.437-9.909,9.909-9.909
				l0,0c5.473,0,9.909,4.437,9.909,9.909l0,0C395.359,547.746,390.922,552.182,385.45,552.182z"/>
			<path fill="#9E8FAE" d="M489.648,546.924h-82.615c-2.204,0-3.99-1.787-3.99-3.99v-2.131c0-2.204,1.786-3.99,3.99-3.99h82.615
				c2.204,0,3.99,1.787,3.99,3.99v2.131C493.638,545.138,491.852,546.924,489.648,546.924z"/>
			<path fill="#2191F2" d="M385.45,663.403L385.45,663.403c-5.472,0-9.909-4.437-9.909-9.909l0,0c0-5.473,4.437-9.909,9.909-9.909
				l0,0c5.473,0,9.909,4.436,9.909,9.909l0,0C395.359,658.967,390.922,663.403,385.45,663.403z"/>
			<path fill="#9E8FAE" d="M489.648,658.146h-82.615c-2.204,0-3.99-1.786-3.99-3.99v-2.13c0-2.204,1.786-3.99,3.99-3.99h82.615
				c2.204,0,3.99,1.786,3.99,3.99v2.13C493.638,656.359,491.852,658.146,489.648,658.146z"/>
			<path fill="#2191F2" d="M385.45,808.193L385.45,808.193c-5.472,0-9.909-4.437-9.909-9.909l0,0c0-5.473,4.437-9.909,9.909-9.909
				l0,0c5.473,0,9.909,4.437,9.909,9.909l0,0C395.359,803.757,390.922,808.193,385.45,808.193z"/>
			<path fill="#9E8FAE" d="M489.648,802.936h-82.615c-2.204,0-3.99-1.786-3.99-3.99v-2.131c0-2.204,1.786-3.99,3.99-3.99h82.615
				c2.204,0,3.99,1.786,3.99,3.99v2.131C493.638,801.149,491.852,802.936,489.648,802.936z"/>
			<path fill="#2191F2" d="M385.45,845.604L385.45,845.604c-5.472,0-9.909-4.436-9.909-9.909l0,0c0-5.473,4.437-9.909,9.909-9.909
				l0,0c5.473,0,9.909,4.436,9.909,9.909l0,0C395.359,841.168,390.922,845.604,385.45,845.604z"/>
			<path fill="#9E8FAE" d="M489.648,840.346h-82.615c-2.204,0-3.99-1.786-3.99-3.99v-2.131c0-2.204,1.786-3.99,3.99-3.99h82.615
				c2.204,0,3.99,1.787,3.99,3.99v2.131C493.638,838.56,491.852,840.346,489.648,840.346z"/>
			<path fill="#2191F2" d="M412.952,581.302L412.952,581.302c-5.472,0-9.909-4.437-9.909-9.909l0,0c0-5.472,4.437-9.909,9.909-9.909
				l0,0c5.473,0,9.909,4.437,9.909,9.909l0,0C422.861,576.865,418.424,581.302,412.952,581.302z"/>
			<path fill="#9E8FAE" d="M517.15,576.044h-82.615c-2.204,0-3.99-1.787-3.99-3.99v-2.131c0-2.204,1.787-3.99,3.99-3.99h82.615
				c2.204,0,3.99,1.786,3.99,3.99v2.131C521.14,574.257,519.354,576.044,517.15,576.044z"/>
			<path fill="#2191F2" d="M412.952,610.421L412.952,610.421c-5.472,0-9.909-4.436-9.909-9.909l0,0c0-5.473,4.437-9.909,9.909-9.909
				l0,0c5.473,0,9.909,4.436,9.909,9.909l0,0C422.861,605.985,418.424,610.421,412.952,610.421z"/>
			<path fill="#9E8FAE" d="M551.527,605.164H434.535c-2.204,0-3.99-1.786-3.99-3.99v-2.131c0-2.204,1.787-3.99,3.99-3.99h116.992
				c2.204,0,3.99,1.787,3.99,3.99v2.131C555.517,603.377,553.731,605.164,551.527,605.164z"/>
			<path fill="#2191F2" d="M412.952,691.31L412.952,691.31c-5.472,0-9.909-4.436-9.909-9.909l0,0c0-5.472,4.437-9.909,9.909-9.909
				l0,0c5.473,0,9.909,4.437,9.909,9.909l0,0C422.861,686.874,418.424,691.31,412.952,691.31z"/>
			<path fill="#9E8FAE" d="M578.625,686.052h-144.09c-2.204,0-3.99-1.786-3.99-3.99v-2.131c0-2.204,1.787-3.99,3.99-3.99h144.09
				c2.204,0,3.99,1.787,3.99,3.99v2.131C582.615,684.266,580.829,686.052,578.625,686.052z"/>
			<path fill="#2191F2" d="M412.952,720.43L412.952,720.43c-5.472,0-9.909-4.437-9.909-9.909l0,0c0-5.472,4.437-9.909,9.909-9.909
				l0,0c5.473,0,9.909,4.437,9.909,9.909l0,0C422.861,715.993,418.424,720.43,412.952,720.43z"/>
			<path fill="#9E8FAE" d="M529.283,715.172h-94.748c-2.204,0-3.99-1.787-3.99-3.99v-2.131c0-2.204,1.787-3.99,3.99-3.99h94.748
				c2.204,0,3.99,1.787,3.99,3.99v2.131C533.273,713.385,531.487,715.172,529.283,715.172z"/>
			<path fill="#2191F2" d="M438.366,746.991L438.366,746.991c-4.319,0-7.821-3.501-7.821-7.821l0,0c0-4.319,3.501-7.82,7.821-7.82
				l0,0c4.319,0,7.82,3.501,7.82,7.82l0,0C446.186,743.489,442.685,746.991,438.366,746.991z"/>
			<path fill="#9E8FAE" d="M617.451,742.841h-161.21c-2.204,0-3.99-1.786-3.99-3.99l0,0c0-2.204,1.787-3.99,3.99-3.99h161.21
				c2.204,0,3.99,1.786,3.99,3.99l0,0C621.441,741.055,619.655,742.841,617.451,742.841z"/>
			<path fill="#2191F2" d="M438.366,769.974L438.366,769.974c-4.319,0-7.821-3.501-7.821-7.821l0,0c0-4.319,3.501-7.82,7.821-7.82
				l0,0c4.319,0,7.82,3.501,7.82,7.82l0,0C446.186,766.472,442.685,769.974,438.366,769.974z"/>
			<path fill="#9E8FAE" d="M551.527,765.824h-95.286c-2.204,0-3.99-1.786-3.99-3.99l0,0c0-2.204,1.787-3.99,3.99-3.99h95.286
				c2.204,0,3.99,1.787,3.99,3.99l0,0C555.517,764.038,553.731,765.824,551.527,765.824z"/>
		</g>
		<g>
			<path fill="#2191F2" d="M385.45,887.466L385.45,887.466c-5.472,0-9.909-4.437-9.909-9.909l0,0c0-5.472,4.437-9.909,9.909-9.909
				l0,0c5.473,0,9.909,4.437,9.909,9.909l0,0C395.359,883.029,390.922,887.466,385.45,887.466z"/>
			<path fill="#9E8FAE" d="M489.648,882.208h-82.615c-2.204,0-3.99-1.787-3.99-3.99v-2.131c0-2.204,1.786-3.99,3.99-3.99h82.615
				c2.204,0,3.99,1.786,3.99,3.99v2.131C493.638,880.421,491.852,882.208,489.648,882.208z"/>
			<path fill="#2191F2" d="M385.45,998.687L385.45,998.687c-5.472,0-9.909-4.436-9.909-9.909l0,0c0-5.473,4.437-9.909,9.909-9.909
				l0,0c5.473,0,9.909,4.436,9.909,9.909l0,0C395.359,994.251,390.922,998.687,385.45,998.687z"/>
			<path fill="#9E8FAE" d="M489.648,993.429h-82.615c-2.204,0-3.99-1.786-3.99-3.99v-2.131c0-2.204,1.786-3.99,3.99-3.99h82.615
				c2.204,0,3.99,1.786,3.99,3.99v2.131C493.638,991.643,491.852,993.429,489.648,993.429z"/>
			<path fill="#2191F2" d="M385.45,1143.478L385.45,1143.478c-5.472,0-9.909-4.437-9.909-9.909l0,0c0-5.473,4.437-9.909,9.909-9.909
				l0,0c5.473,0,9.909,4.437,9.909,9.909l0,0C395.359,1139.041,390.922,1143.478,385.45,1143.478z"/>
			<path fill="#9E8FAE" d="M489.648,1138.22h-82.615c-2.204,0-3.99-1.787-3.99-3.99v-2.131c0-2.204,1.786-3.99,3.99-3.99h82.615
				c2.204,0,3.99,1.786,3.99,3.99v2.131C493.638,1136.433,491.852,1138.22,489.648,1138.22z"/>
			<path fill="#2191F2" d="M385.45,1180.888L385.45,1180.888c-5.472,0-9.909-4.437-9.909-9.908l0,0c0-5.473,4.437-9.909,9.909-9.909
				l0,0c5.473,0,9.909,4.437,9.909,9.909l0,0C395.359,1176.451,390.922,1180.888,385.45,1180.888z"/>
			<path fill="#9E8FAE" d="M489.648,1175.63h-82.615c-2.204,0-3.99-1.786-3.99-3.989v-2.131c0-2.204,1.786-3.99,3.99-3.99h82.615
				c2.204,0,3.99,1.786,3.99,3.99v2.131C493.638,1173.844,491.852,1175.63,489.648,1175.63z"/>
			<path fill="#2191F2" d="M412.952,916.585L412.952,916.585c-5.472,0-9.909-4.436-9.909-9.909l0,0c0-5.473,4.437-9.909,9.909-9.909
				l0,0c5.473,0,9.909,4.437,9.909,9.909l0,0C422.861,912.149,418.424,916.585,412.952,916.585z"/>
			<path fill="#9E8FAE" d="M517.15,911.328h-82.615c-2.204,0-3.99-1.786-3.99-3.99v-2.131c0-2.204,1.787-3.99,3.99-3.99h82.615
				c2.204,0,3.99,1.786,3.99,3.99v2.131C521.14,909.542,519.354,911.328,517.15,911.328z"/>
			<path fill="#2191F2" d="M412.952,945.705L412.952,945.705c-5.472,0-9.909-4.436-9.909-9.909l0,0c0-5.472,4.437-9.909,9.909-9.909
				l0,0c5.473,0,9.909,4.437,9.909,9.909l0,0C422.861,941.269,418.424,945.705,412.952,945.705z"/>
			<path fill="#9E8FAE" d="M551.527,940.447H434.535c-2.204,0-3.99-1.786-3.99-3.99v-2.131c0-2.204,1.787-3.99,3.99-3.99h116.992
				c2.204,0,3.99,1.787,3.99,3.99v2.131C555.517,938.661,553.731,940.447,551.527,940.447z"/>
			<path fill="#2191F2" d="M412.952,1026.594L412.952,1026.594c-5.472,0-9.909-4.437-9.909-9.909l0,0
				c0-5.473,4.437-9.908,9.909-9.908l0,0c5.473,0,9.909,4.436,9.909,9.908l0,0C422.861,1022.157,418.424,1026.594,412.952,1026.594z
				"/>
			<path fill="#9E8FAE" d="M578.625,1021.336h-144.09c-2.204,0-3.99-1.787-3.99-3.99v-2.131c0-2.204,1.787-3.99,3.99-3.99h144.09
				c2.204,0,3.99,1.786,3.99,3.99v2.131C582.615,1019.549,580.829,1021.336,578.625,1021.336z"/>
			<path fill="#2191F2" d="M412.952,1055.713L412.952,1055.713c-5.472,0-9.909-4.436-9.909-9.908l0,0
				c0-5.473,4.437-9.909,9.909-9.909l0,0c5.473,0,9.909,4.437,9.909,9.909l0,0C422.861,1051.277,418.424,1055.713,412.952,1055.713z
				"/>
			<path fill="#9E8FAE" d="M529.283,1050.456h-94.748c-2.204,0-3.99-1.787-3.99-3.99v-2.131c0-2.204,1.787-3.99,3.99-3.99h94.748
				c2.204,0,3.99,1.786,3.99,3.99v2.131C533.273,1048.669,531.487,1050.456,529.283,1050.456z"/>
			<path fill="#2191F2" d="M438.366,1082.274L438.366,1082.274c-4.319,0-7.821-3.501-7.821-7.82l0,0
				c0-4.319,3.501-7.821,7.821-7.821l0,0c4.319,0,7.82,3.502,7.82,7.821l0,0C446.186,1078.773,442.685,1082.274,438.366,1082.274z"
				/>
			<path fill="#9E8FAE" d="M617.451,1078.125h-161.21c-2.204,0-3.99-1.787-3.99-3.99l0,0c0-2.204,1.787-3.99,3.99-3.99h161.21
				c2.204,0,3.99,1.786,3.99,3.99l0,0C621.441,1076.338,619.655,1078.125,617.451,1078.125z"/>
			<path fill="#2191F2" d="M438.366,1105.257L438.366,1105.257c-4.319,0-7.821-3.501-7.821-7.82l0,0c0-4.319,3.501-7.82,7.821-7.82
				l0,0c4.319,0,7.82,3.501,7.82,7.82l0,0C446.186,1101.756,442.685,1105.257,438.366,1105.257z"/>
			<path fill="#9E8FAE" d="M551.527,1101.107h-95.286c-2.204,0-3.99-1.786-3.99-3.99l0,0c0-2.203,1.787-3.989,3.99-3.989h95.286
				c2.204,0,3.99,1.786,3.99,3.989l0,0C555.517,1099.321,553.731,1101.107,551.527,1101.107z"/>
		</g>
		<path fill="#4F5569" d="M707.556,541.869L707.556,541.869c-4.457,0-8.07-3.613-8.07-8.071l0,0c0-4.457,3.613-8.07,8.07-8.07l0,0
			c4.458,0,8.071,3.613,8.071,8.07l0,0C715.626,538.255,712.013,541.869,707.556,541.869z"/>
		<path fill="#FFCB30" d="M828.665,541.869h-80.894c-4.458,0-8.071-3.613-8.071-8.071l0,0c0-4.457,3.613-8.07,8.071-8.07h80.894
			c4.458,0,8.071,3.613,8.071,8.07l0,0C836.736,538.255,833.123,541.869,828.665,541.869z"/>
		<path fill="#E4464A" d="M1029.621,541.869H868.78c-4.457,0-8.07-3.613-8.07-8.071l0,0c0-4.457,3.613-8.07,8.07-8.07h160.841
			c4.457,0,8.07,3.613,8.07,8.07l0,0C1037.691,538.255,1034.078,541.869,1029.621,541.869z"/>
		<path fill="#4F5569" d="M707.556,589.372L707.556,589.372c-4.457,0-8.07-3.613-8.07-8.07l0,0c0-4.458,3.613-8.071,8.07-8.071l0,0
			c4.458,0,8.071,3.613,8.071,8.071l0,0C715.626,585.759,712.013,589.372,707.556,589.372z"/>
		<path fill="#1957C2" d="M973.461,589.372h-225.69c-4.458,0-8.071-3.613-8.071-8.07l0,0c0-4.458,3.613-8.071,8.071-8.071h225.69
			c4.458,0,8.071,3.613,8.071,8.071l0,0C981.532,585.759,977.918,589.372,973.461,589.372z"/>
		<path fill="#FFCB30" d="M1424.121,589.372h-410.545c-4.457,0-8.071-3.613-8.071-8.07l0,0c0-4.458,3.614-8.071,8.071-8.071h410.545
			c4.457,0,8.07,3.613,8.07,8.071l0,0C1432.191,585.759,1428.578,589.372,1424.121,589.372z"/>
		<path fill="#4F5569" d="M707.556,636.876L707.556,636.876c-4.457,0-8.07-3.613-8.07-8.07v0c0-4.457,3.613-8.07,8.07-8.07l0,0
			c4.458,0,8.071,3.613,8.071,8.07v0C715.626,633.263,712.013,636.876,707.556,636.876z"/>
		<path fill="#1957C2" d="M828.665,636.876h-80.894c-4.458,0-8.071-3.613-8.071-8.07v0c0-4.457,3.613-8.07,8.071-8.07h80.894
			c4.458,0,8.071,3.613,8.071,8.07v0C836.736,633.263,833.123,636.876,828.665,636.876z"/>
		<path fill="#4F5569" d="M707.556,684.38L707.556,684.38c-4.457,0-8.07-3.613-8.07-8.071l0,0c0-4.458,3.613-8.071,8.07-8.071l0,0
			c4.458,0,8.071,3.613,8.071,8.071l0,0C715.626,680.767,712.013,684.38,707.556,684.38z"/>
		<path fill="#E4464A" d="M787.785,684.38h-40.014c-4.458,0-8.071-3.613-8.071-8.071l0,0c0-4.458,3.613-8.071,8.071-8.071h40.014
			c4.458,0,8.071,3.613,8.071,8.071l0,0C795.856,680.767,792.243,684.38,787.785,684.38z"/>
		<path fill="#9E8FAE" d="M973.461,684.38H827.9c-4.458,0-8.071-3.613-8.071-8.071l0,0c0-4.458,3.613-8.071,8.071-8.071h145.561
			c4.458,0,8.071,3.613,8.071,8.071l0,0C981.532,680.767,977.918,684.38,973.461,684.38z"/>
		<path fill="#4F5569" d="M707.556,731.883L707.556,731.883c-4.457,0-8.07-3.613-8.07-8.07l0,0c0-4.458,3.613-8.071,8.07-8.071l0,0
			c4.458,0,8.071,3.613,8.071,8.071l0,0C715.626,728.27,712.013,731.883,707.556,731.883z"/>
		<path fill="#9E8FAE" d="M877.183,731.883h-80.895c-4.458,0-8.071-3.613-8.071-8.07l0,0c0-4.458,3.613-8.071,8.071-8.071h80.895
			c4.457,0,8.07,3.613,8.07,8.071l0,0C885.253,728.27,881.64,731.883,877.183,731.883z"/>
		<path fill="#0C97B3" d="M1114.703,731.883H917.298c-4.458,0-8.071-3.613-8.071-8.07l0,0c0-4.458,3.613-8.071,8.071-8.071h197.405
			c4.458,0,8.071,3.613,8.071,8.071l0,0C1122.774,728.27,1119.161,731.883,1114.703,731.883z"/>
		<path fill="#4F5569" d="M707.556,779.387L707.556,779.387c-4.457,0-8.07-3.613-8.07-8.071l0,0c0-4.457,3.613-8.071,8.07-8.071l0,0
			c4.458,0,8.071,3.614,8.071,8.071l0,0C715.626,775.774,712.013,779.387,707.556,779.387z"/>
		<path fill="#FFCB30" d="M1507.503,779.387H796.289c-4.458,0-8.071-3.613-8.071-8.071l0,0c0-4.457,3.613-8.071,8.071-8.071h711.214
			c4.457,0,8.07,3.614,8.07,8.071l0,0C1515.573,775.774,1511.96,779.387,1507.503,779.387z"/>
		<path fill="#F5AB35" d="M1635.131,779.387h-82.061c-4.457,0-8.07-3.613-8.07-8.071l0,0c0-4.457,3.613-8.071,8.07-8.071h82.061
			c4.458,0,8.071,3.614,8.071,8.071l0,0C1643.202,775.774,1639.589,779.387,1635.131,779.387z"/>
		<path fill="#F5AB35" d="M1635.131,778.044h-82.061c-4.457,0-8.07-3.613-8.07-8.071l0,0c0-4.458,3.613-8.071,8.07-8.071h82.061
			c4.458,0,8.071,3.613,8.071,8.071l0,0C1643.202,774.431,1639.589,778.044,1635.131,778.044z"/>
		<path fill="#4F5569" d="M707.556,826.891L707.556,826.891c-4.457,0-8.07-3.613-8.07-8.071l0,0c0-4.458,3.613-8.071,8.07-8.071l0,0
			c4.458,0,8.071,3.613,8.071,8.071l0,0C715.626,823.278,712.013,826.891,707.556,826.891z"/>
		<path fill="#4F5569" d="M707.556,874.395L707.556,874.395c-4.457,0-8.07-3.613-8.07-8.07l0,0c0-4.458,3.613-8.071,8.07-8.071l0,0
			c4.458,0,8.071,3.613,8.071,8.071l0,0C715.626,870.781,712.013,874.395,707.556,874.395z"/>
		<path fill="#0C97B3" d="M1440.992,874.395H852.014c-4.458,0-8.071-3.613-8.071-8.07l0,0c0-4.458,3.613-8.071,8.071-8.071h588.979
			c4.457,0,8.071,3.613,8.071,8.071l0,0C1449.063,870.781,1445.449,874.395,1440.992,874.395z"/>
		<path fill="#FFCB30" d="M1635.131,874.395h-152.166c-4.457,0-8.07-3.613-8.07-8.07l0,0c0-4.458,3.613-8.071,8.07-8.071h152.166
			c4.458,0,8.071,3.613,8.071,8.071l0,0C1643.202,870.781,1639.589,874.395,1635.131,874.395z"/>
		<path fill="#4F5569" d="M707.556,921.898L707.556,921.898c-4.457,0-8.07-3.613-8.07-8.071l0,0c0-4.458,3.613-8.071,8.07-8.071l0,0
			c4.458,0,8.071,3.613,8.071,8.071l0,0C715.626,918.285,712.013,921.898,707.556,921.898z"/>
		<path fill="#E4464A" d="M835.872,921.898h-39.583c-4.458,0-8.071-3.613-8.071-8.071l0,0c0-4.458,3.613-8.071,8.071-8.071h39.583
			c4.458,0,8.071,3.613,8.071,8.071l0,0C843.943,918.285,840.33,921.898,835.872,921.898z"/>
		<path fill="#4F5569" d="M707.556,968.776L707.556,968.776c-4.457,0-8.07-3.613-8.07-8.07l0,0c0-4.458,3.613-8.071,8.07-8.071l0,0
			c4.458,0,8.071,3.613,8.071,8.071l0,0C715.626,965.163,712.013,968.776,707.556,968.776z"/>
		<path fill="#9E8FAE" d="M877.183,968.776h-80.895c-4.458,0-8.071-3.613-8.071-8.07l0,0c0-4.458,3.613-8.071,8.071-8.071h80.895
			c4.457,0,8.07,3.613,8.07,8.071l0,0C885.253,965.163,881.64,968.776,877.183,968.776z"/>
		<path fill="#0C97B3" d="M1114.703,968.776H917.298c-4.458,0-8.071-3.613-8.071-8.07l0,0c0-4.458,3.613-8.071,8.071-8.071h197.405
			c4.458,0,8.071,3.613,8.071,8.071l0,0C1122.774,965.163,1119.161,968.776,1114.703,968.776z"/>
		<path fill="#4F5569" d="M707.556,1016.28L707.556,1016.28c-4.457,0-8.07-3.613-8.07-8.07l0,0c0-4.458,3.613-8.071,8.07-8.071l0,0
			c4.458,0,8.071,3.613,8.071,8.071l0,0C715.626,1012.667,712.013,1016.28,707.556,1016.28z"/>
		<path fill="#FFCB30" d="M1507.503,1016.28H796.289c-4.458,0-8.071-3.613-8.071-8.07l0,0c0-4.458,3.613-8.071,8.071-8.071h711.214
			c4.457,0,8.07,3.613,8.07,8.071l0,0C1515.573,1012.667,1511.96,1016.28,1507.503,1016.28z"/>
		<path fill="#F5AB35" d="M1635.131,1016.28h-82.061c-4.457,0-8.07-3.613-8.07-8.07l0,0c0-4.458,3.613-8.071,8.07-8.071h82.061
			c4.458,0,8.071,3.613,8.071,8.071l0,0C1643.202,1012.667,1639.589,1016.28,1635.131,1016.28z"/>
		<path fill="#F5AB35" d="M1635.131,1014.938h-82.061c-4.457,0-8.07-3.613-8.07-8.07l0,0c0-4.458,3.613-8.071,8.07-8.071h82.061
			c4.458,0,8.071,3.613,8.071,8.071l0,0C1643.202,1011.324,1639.589,1014.938,1635.131,1014.938z"/>
		<path fill="#4F5569" d="M707.556,1063.784L707.556,1063.784c-4.457,0-8.07-3.613-8.07-8.071l0,0c0-4.457,3.613-8.07,8.07-8.07l0,0
			c4.458,0,8.071,3.613,8.071,8.07l0,0C715.626,1060.171,712.013,1063.784,707.556,1063.784z"/>
		<path fill="#E4464A" d="M1838.258,1063.784H852.014c-4.458,0-8.071-3.613-8.071-8.071l0,0c0-4.457,3.613-8.07,8.071-8.07h986.244
			c4.457,0,8.07,3.613,8.07,8.07l0,0C1846.328,1060.171,1842.715,1063.784,1838.258,1063.784z"/>
		<path fill="#4F5569" d="M707.556,1111.288L707.556,1111.288c-4.457,0-8.07-3.614-8.07-8.071l0,0c0-4.457,3.613-8.07,8.07-8.07l0,0
			c4.458,0,8.071,3.613,8.071,8.07l0,0C715.626,1107.674,712.013,1111.288,707.556,1111.288z"/>
		<path fill="#0C97B3" d="M1016.469,1111.288H852.014c-4.458,0-8.071-3.614-8.071-8.071l0,0c0-4.457,3.613-8.07,8.071-8.07h164.455
			c4.457,0,8.07,3.613,8.07,8.07l0,0C1024.539,1107.674,1020.926,1111.288,1016.469,1111.288z"/>
		<path fill="#9E8FAE" d="M1440.992,1111.288h-376.717c-4.457,0-8.07-3.614-8.07-8.071l0,0c0-4.457,3.613-8.07,8.07-8.07h376.717
			c4.457,0,8.071,3.613,8.071,8.07l0,0C1449.063,1107.674,1445.449,1111.288,1440.992,1111.288z"/>
		<path fill="#FFCB30" d="M1635.131,1111.288h-152.166c-4.457,0-8.07-3.614-8.07-8.071l0,0c0-4.457,3.613-8.07,8.07-8.07h152.166
			c4.458,0,8.071,3.613,8.071,8.07l0,0C1643.202,1107.674,1639.589,1111.288,1635.131,1111.288z"/>
		<path fill="#4F5569" d="M707.556,1158.791L707.556,1158.791c-4.457,0-8.07-3.613-8.07-8.07l0,0c0-4.457,3.613-8.07,8.07-8.07l0,0
			c4.458,0,8.071,3.613,8.071,8.07l0,0C715.626,1155.178,712.013,1158.791,707.556,1158.791z"/>
		<path fill="#F5AB35" d="M835.872,1158.791h-39.583c-4.458,0-8.071-3.613-8.071-8.07l0,0c0-4.457,3.613-8.07,8.071-8.07h39.583
			c4.458,0,8.071,3.613,8.071,8.07l0,0C843.943,1155.178,840.33,1158.791,835.872,1158.791z"/>
		<path fill="#4F5569" d="M707.556,1205.67L707.556,1205.67c-4.457,0-8.07-3.613-8.07-8.071l0,0c0-4.457,3.613-8.07,8.07-8.07l0,0
			c4.458,0,8.071,3.613,8.071,8.07l0,0C715.626,1202.057,712.013,1205.67,707.556,1205.67z"/>
		<path fill="#9E8FAE" d="M877.183,1205.67h-80.895c-4.458,0-8.071-3.613-8.071-8.071l0,0c0-4.457,3.613-8.07,8.071-8.07h80.895
			c4.457,0,8.07,3.613,8.07,8.07l0,0C885.253,1202.057,881.64,1205.67,877.183,1205.67z"/>
		<path fill="#0C97B3" d="M1114.703,1205.67H917.298c-4.458,0-8.071-3.613-8.071-8.071l0,0c0-4.457,3.613-8.07,8.071-8.07h197.405
			c4.458,0,8.071,3.613,8.071,8.07l0,0C1122.774,1202.057,1119.161,1205.67,1114.703,1205.67z"/>
		<path fill="#4F5569" d="M707.556,1253.173L707.556,1253.173c-4.457,0-8.07-3.613-8.07-8.07l0,0c0-4.457,3.613-8.07,8.07-8.07l0,0
			c4.458,0,8.071,3.613,8.071,8.07l0,0C715.626,1249.56,712.013,1253.173,707.556,1253.173z"/>
		<path fill="#FFCB30" d="M1507.503,1253.173H796.289c-4.458,0-8.071-3.613-8.071-8.07l0,0c0-4.457,3.613-8.07,8.071-8.07h711.214
			c4.457,0,8.07,3.613,8.07,8.07l0,0C1515.573,1249.56,1511.96,1253.173,1507.503,1253.173z"/>
		<path fill="#F5AB35" d="M1635.131,1253.173h-82.061c-4.457,0-8.07-3.613-8.07-8.07l0,0c0-4.457,3.613-8.07,8.07-8.07h82.061
			c4.458,0,8.071,3.613,8.071,8.07l0,0C1643.202,1249.56,1639.589,1253.173,1635.131,1253.173z"/>
		<path fill="#FFCB30" d="M1635.131,1251.83h-82.061c-4.457,0-8.07-3.613-8.07-8.07l0,0c0-4.457,3.613-8.07,8.07-8.07h82.061
			c4.458,0,8.071,3.613,8.071,8.07l0,0C1643.202,1248.217,1639.589,1251.83,1635.131,1251.83z"/>
		<path fill="#4F5569" d="M707.556,1300.677L707.556,1300.677c-4.457,0-8.07-3.613-8.07-8.07l0,0c0-4.457,3.613-8.07,8.07-8.07l0,0
			c4.458,0,8.071,3.613,8.071,8.07l0,0C715.626,1297.063,712.013,1300.677,707.556,1300.677z"/>
		<path fill="#0C97B3" d="M1838.258,1300.677H852.014c-4.458,0-8.071-3.613-8.071-8.07l0,0c0-4.457,3.613-8.07,8.071-8.07h986.244
			c4.457,0,8.07,3.613,8.07,8.07l0,0C1846.328,1297.063,1842.715,1300.677,1838.258,1300.677z"/>
		<path fill="#4F5569" d="M707.556,1348.181L707.556,1348.181c-4.457,0-8.07-3.613-8.07-8.07l0,0c0-4.458,3.613-8.071,8.07-8.071
			l0,0c4.458,0,8.071,3.613,8.071,8.071l0,0C715.626,1344.567,712.013,1348.181,707.556,1348.181z"/>
		<path fill="#9E8FAE" d="M1440.992,1348.181H852.014c-4.458,0-8.071-3.613-8.071-8.07l0,0c0-4.458,3.613-8.071,8.071-8.071h588.979
			c4.457,0,8.071,3.613,8.071,8.071l0,0C1449.063,1344.567,1445.449,1348.181,1440.992,1348.181z"/>
		<path fill="#E4464A" d="M1635.131,1348.181h-152.166c-4.457,0-8.07-3.613-8.07-8.07l0,0c0-4.458,3.613-8.071,8.07-8.071h152.166
			c4.458,0,8.071,3.613,8.071,8.071l0,0C1643.202,1344.567,1639.589,1348.181,1635.131,1348.181z"/>
		<path fill="#9E8FAE" d="M1838.258,1348.181h-152.166c-4.457,0-8.071-3.613-8.071-8.07l0,0c0-4.458,3.614-8.071,8.071-8.071
			h152.166c4.457,0,8.07,3.613,8.07,8.071l0,0C1846.328,1344.567,1842.715,1348.181,1838.258,1348.181z"/>
		<path fill="#4F5569" d="M707.556,1395.685L707.556,1395.685c-4.457,0-8.07-3.613-8.07-8.071l0,0c0-4.457,3.613-8.07,8.07-8.07l0,0
			c4.458,0,8.071,3.613,8.071,8.07l0,0C715.626,1392.071,712.013,1395.685,707.556,1395.685z"/>
		<path fill="#F5AB35" d="M835.872,1395.685h-39.583c-4.458,0-8.071-3.613-8.071-8.071l0,0c0-4.457,3.613-8.07,8.071-8.07h39.583
			c4.458,0,8.071,3.613,8.071,8.07l0,0C843.943,1392.071,840.33,1395.685,835.872,1395.685z"/>
	</g>
	<g>
		<path fill="#1957C2" d="M659.71,1318.63c-18.081-20.559-18.353-52.015-8.856-77.693s27.119-47.353,42.698-69.866
			c15.58-22.513,29.744-47.599,30.62-74.963c1.627-50.764-41.31-90.899-58.965-138.521c-4.473-12.064-7.249-24.549-8.561-37.229
			c-10.807-107.896,47.929-228.307,152.187-265.017c13.216-5.874,30.836,2.937,30.836,16.153
			c1.469,29.368-26.431,52.863-26.431,83.7c0,2.937,1.468,8.811,2.937,10.279c52.863,29.369,63.142,82.231,8.811,117.474
			c-4.405,4.405-5.874,10.279-8.946,15.704c-3.653,9.363-4.08,19.378-2.49,29.307c1.589,9.929,5.197,19.773,9.618,28.793
			c8.841,18.04,20.881,34.59,27.418,53.587c17.863,51.908-8.944,108.3-40.806,153.002c-31.863,44.703-70.731,87.721-81.13,141.622
			c-3.331,17.264-3.685,35.498-11.462,51.266c-7.777,15.769-26.624,28.227-42.771,21.271c-1.069-4.738-2.139-9.478-3.209-14.216"/>
		<path fill="#031162" d="M704.808,1157.92l-1.444-1.741c73.456-60.913,51.607-152.157,30.477-240.396
			c-1.822-7.61-3.643-15.213-5.404-22.793c-11.712-50.413,4.177-94.075,19.568-121.825c16.661-30.036,36.368-48.435,36.565-48.617
			l1.535,1.659c-0.778,0.721-77.57,73.131-55.466,168.272c1.759,7.574,3.579,15.172,5.4,22.777
			C757.331,1004.168,779.347,1096.106,704.808,1157.92z"/>
		<path fill="#7DADFF" d="M508.807,1011.168c-27.098-30.685-45.074-72.173-37.864-112.47c7.209-40.297,45.196-75.82,85.852-71.039
			c-22.588-35.282-45.885-72.685-48.023-114.524c-2.138-41.838,25.548-88.337,67.349-91.125
			c17.744-1.183,34.881,6.972,47.037,19.834c12.402,13.495,19.745,31.116,18.276,48.737c-8.811-11.748,2.937-26.432,14.685-29.368
			c7.342-1.469,14.684,0,20.558,4.405c11.748,10.279,19.089,24.963,16.153,39.647c-8.811,35.242-33.774,67.547-16.153,104.258
			c27.9,55.8,52.863,110.131,65.475,170.707c2.467,9.832,4.771,19.724,6.792,29.673c2.026,9.95,3.769,19.958,5.223,30.008
			c3.881,26.829,5.535,55.182-5.089,80.122c-12.652,29.702-41.342,51.2-50.284,82.222c-14.184,49.207,25.811,105.699,1.879,150.971
			c-17.335,32.792-63.889,38.739-94.299,21.886c-43.355-24.028-44.428-80.962-33.376-123.561
			c10.442-40.249,33.466-74.916,27.079-118.817c-2.218-15.247-7.659-28.463-15.085-40.423
			C565.75,1061.326,533.184,1038.773,508.807,1011.168z"/>
		<polygon fill="#FFCB30" points="498.372,1311.257 801.192,1311.257 719.799,1473.389 570.064,1473.389 		"/>
		<path fill="#031162" d="M648.761,1302.93c-0.31-0.652-7.585-16.348-9.055-46.94c-1.352-28.141,2.255-74.678,27.109-136.561
			c33.934-84.487-10.723-168.951-43.329-230.624c-13.291-25.139-24.769-46.849-28.191-63.389
			c-11.691-56.505,21.295-124.375,21.629-125.054l2.028,0.999c-0.331,0.672-32.975,67.861-21.444,123.597
			c3.357,16.224,14.766,37.804,27.976,62.79c32.813,62.064,77.752,147.063,43.429,232.523
			c-24.667,61.415-28.275,107.553-26.958,135.441c1.426,30.2,8.774,46.094,8.848,46.25L648.761,1302.93z"/>
		<path fill="#031162" d="M668.988,1119.982l-2.246-0.264c4.434-37.968-3.873-94.919-68.63-150.626
			c-38.816-33.392-80.045-50.67-80.458-50.841l0.866-2.088c0.415,0.172,41.979,17.59,81.067,51.215
			C635.745,998.484,677.136,1050.208,668.988,1119.982z"/>
		<path fill="#031162" d="M612.159,867.069c-14.176-47.196-1.123-83.999,12.323-106.563c14.56-24.431,32.743-37.908,32.925-38.042
			l1.336,1.824c-0.179,0.131-18.045,13.387-32.365,37.452c-13.187,22.16-25.982,58.308-12.055,104.677L612.159,867.069z"/>
		<path fill="#031162" d="M660.976,1141.398l-2.256-0.153c2.441-35.747-3.161-84.808-43.706-115.524
			c-24.245-18.369-49.812-21.489-50.067-21.519l0.259-2.246c0.261,0.031,26.442,3.227,51.173,21.963
			C657.729,1055.246,663.454,1105.096,660.976,1141.398z"/>
		<path fill="#031162" d="M738.57,926.1l-2.253-0.197c2.832-32.332,12.638-75.722,43.265-98.818
			c18.427-13.896,35.399-13.795,36.12-13.795l-0.032,2.261c-0.179,0.035-17.035-0.06-34.851,13.434
			C750.949,851.606,741.356,894.282,738.57,926.1z"/>
		<path fill="#031162" d="M504.36,913.242c-3.926,0-7.119-3.193-7.119-7.119s3.193-7.119,7.119-7.119s7.119,3.193,7.119,7.119
			S508.286,913.242,504.36,913.242z M504.36,901.265c-2.679,0-4.858,2.179-4.858,4.858s2.179,4.858,4.858,4.858
			c2.679,0,4.858-2.179,4.858-4.858S507.039,901.265,504.36,901.265z"/>
		<path fill="#031162" d="M828.167,815.549c-3.187,0-5.78-2.593-5.78-5.781c0-3.188,2.593-5.78,5.78-5.78
			c3.188,0,5.781,2.593,5.781,5.78C833.947,812.957,831.354,815.549,828.167,815.549z M828.167,806.249
			c-1.94,0-3.519,1.579-3.519,3.52c0,1.941,1.579,3.52,3.519,3.52c1.941,0,3.52-1.579,3.52-3.52
			C831.686,807.828,830.107,806.249,828.167,806.249z"/>
		<path fill="#031162" d="M548.556,1009.624c-3.66,0-6.637-2.977-6.637-6.636c0-3.66,2.978-6.637,6.637-6.637
			s6.637,2.977,6.637,6.637C555.193,1006.647,552.216,1009.624,548.556,1009.624z M548.556,998.612
			c-2.414,0-4.376,1.963-4.376,4.376c0,2.412,1.963,4.377,4.376,4.377c2.413,0,4.376-1.965,4.376-4.377
			C552.932,1000.575,550.969,998.612,548.556,998.612z"/>
		<path fill="#031162" d="M621.391,695.53c-3.092,0-5.608-2.516-5.608-5.609c0-3.092,2.516-5.608,5.608-5.608
			c3.093,0,5.609,2.516,5.609,5.608C627,693.014,624.483,695.53,621.391,695.53z M621.391,686.574c-1.846,0-3.348,1.501-3.348,3.347
			c0,1.847,1.501,3.348,3.348,3.348c1.847,0,3.348-1.501,3.348-3.348C624.739,688.075,623.237,686.574,621.391,686.574z"/>
		<path fill="#031162" d="M667.646,722.695c-3.092,0-5.608-2.516-5.608-5.608s2.516-5.609,5.608-5.609
			c3.093,0,5.609,2.517,5.609,5.609S670.738,722.695,667.646,722.695z M667.646,713.739c-1.846,0-3.347,1.501-3.347,3.348
			c0,1.846,1.501,3.347,3.347,3.347c1.847,0,3.348-1.501,3.348-3.347C670.994,715.241,669.492,713.739,667.646,713.739z"/>
		<path fill="#031162" d="M794.663,717.85c-4.551,0-8.253-3.702-8.253-8.252c0-4.551,3.702-8.253,8.253-8.253
			c4.55,0,8.252,3.702,8.252,8.253C802.915,714.148,799.213,717.85,794.663,717.85z M794.663,703.606
			c-3.304,0-5.992,2.688-5.992,5.992c0,3.303,2.688,5.991,5.992,5.991c3.303,0,5.991-2.688,5.991-5.991
			C800.654,706.294,797.966,703.606,794.663,703.606z"/>
	</g>
	<g>
		<path fill="#FFCB30" d="M1309.587,1004.608c0,36.345-29.452,65.805-65.802,65.805c-36.345,0-65.808-29.46-65.808-65.805
			c0-36.339,29.463-65.804,65.808-65.804C1280.135,938.805,1309.587,968.269,1309.587,1004.608z"/>
		<path fill="#F8F8F8" d="M1209.613,1048.548c1.014,0,2.025-0.396,2.784-1.185c1.478-1.537,1.429-3.98-0.107-5.459
			c-14.366-13.813-14.532-33.889-14.532-34.09c0-2.132-1.729-3.86-3.86-3.86s-3.86,1.729-3.86,3.86
			c0,0.955,0.192,23.59,16.901,39.655C1207.688,1048.19,1208.65,1048.548,1209.613,1048.548z"/>
		<polygon fill="#031162" points="1519.594,1395.499 1573.538,1118.175 1366.314,895.704 1377.176,880.455 1595.313,1111.41 
			1540.75,1392.529 		"/>
		<polygon fill="#031162" points="1390.215,894.262 1414.438,919.908 1388.858,919.908 1380.528,910.965 		"/>
		<polygon fill="#031162" points="1584.545,1166.888 1567.99,1146.699 1569.023,1141.388 1589.813,1139.75 		"/>
		<path fill="#F8F8F8" d="M1459.839,1430.376c0,1.489-1.201,2.7-2.698,2.7h-35.774c-1.491,0-2.709-1.211-2.709-2.7v-27.007
			c0-1.489,1.218-2.695,2.709-2.695h35.774c1.497,0,2.698,1.206,2.698,2.695V1430.376z"/>
		<path fill="#031162" d="M1530.168,1404.839c-88.132,0-159.577,20.569-159.577,57.422h319.159
			C1689.75,1425.408,1618.308,1404.839,1530.168,1404.839z"/>
		<path fill="#031162" d="M1530.168,1427.813c-16.024,0-12.827-12.158-6.852-22.929c2.272-0.028,4.555-0.046,6.852-0.046
			c19.456,0,38.097,1.004,55.336,2.963C1576.609,1413.695,1552.933,1427.813,1530.168,1427.813z"/>
		<g>
			<path fill="#1957C2" d="M1395.201,913.984c-13.445,12.96-34.843,12.563-47.797-0.882c-12.961-13.431-12.556-34.834,0.879-47.786
				c13.439-12.952,34.836-12.561,47.794,0.881C1409.032,879.638,1408.64,901.03,1395.201,913.984z"/>
			<path fill="#031162" d="M1383.071,901.411c-6.493,6.253-16.832,6.064-23.086-0.434c-6.259-6.488-6.067-16.822,0.432-23.073
				c6.494-6.262,16.827-6.07,23.081,0.423C1389.752,884.815,1389.56,895.149,1383.071,901.411z"/>
		</g>
		<g>
			<path fill="#1957C2" d="M1617.947,1114.677c0,18.668-15.139,33.799-33.801,33.799c-18.665,0-33.798-15.131-33.798-33.799
				c0-18.67,15.133-33.795,33.798-33.795C1602.809,1080.882,1617.947,1096.007,1617.947,1114.677z"/>
			<path fill="#031162" d="M1600.473,1114.677c0,9.017-7.308,16.324-16.326,16.324c-9.01,0-16.324-7.308-16.324-16.324
				c0-9.015,7.314-16.326,16.324-16.326C1593.165,1098.351,1600.473,1105.662,1600.473,1114.677z"/>
		</g>
		<g>
			<path fill="#1957C2" d="M1563.961,1394.013c0,18.667-15.126,33.801-33.793,33.801c-18.668,0-33.796-15.134-33.796-33.801
				c0-18.665,15.128-33.798,33.796-33.798C1548.835,1360.215,1563.961,1375.348,1563.961,1394.013z"/>
			<path fill="#031162" d="M1546.494,1394.013c0,9.01-7.309,16.326-16.326,16.326s-16.326-7.316-16.326-16.326
				c0-9.013,7.309-16.323,16.326-16.323S1546.494,1385,1546.494,1394.013z"/>
		</g>
		
			<rect x="1322.58" y="900.871" transform="matrix(0.694 0.72 -0.72 0.694 1068.8021 -691.9442)" fill="#031162" width="51.747" height="21.143"/>
		<g>
			<path fill="#1957C2" d="M1160.988,959.129c65.76-63.383,126.825-104.485,186.219-45.088
				c54.604,54.604,13.854,121.051-51.904,184.431L1160.988,959.129z"/>
		</g>
		<g>
			<defs>
				<path id="SVGID_1_" d="M1348.283,865.317c-13.435,12.952-13.84,34.354-0.879,47.786c12.954,13.445,34.352,13.842,47.797,0.882
					c13.438-12.955,13.831-34.347,0.876-47.786C1383.119,852.756,1361.723,852.365,1348.283,865.317z M1617.947,1114.677
					c0-18.67-15.139-33.795-33.801-33.795c-18.665,0-33.798,15.125-33.798,33.795c0,18.668,15.133,33.799,33.798,33.799
					C1602.809,1148.476,1617.947,1133.345,1617.947,1114.677z M1530.168,1360.215c-18.668,0-33.796,15.133-33.796,33.798
					c0,18.667,15.128,33.801,33.796,33.801c18.667,0,33.793-15.134,33.793-33.801
					C1563.961,1375.348,1548.835,1360.215,1530.168,1360.215z"/>
			</defs>
			<clipPath id="SVGID_2_">
				<use xlink:href="#SVGID_1_"  overflow="visible"/>
			</clipPath>
		</g>
		<g>
			<path fill="#F8F8F8" d="M1371.657,877.904c-6.217,0-11.24,5.026-11.24,11.236c0,6.214,5.023,11.243,11.24,11.243
				c6.205,0,11.233-5.029,11.233-11.243C1382.891,882.93,1377.862,877.904,1371.657,877.904z"/>
			<path fill="#F8F8F8" d="M1584.146,1103.217c-6.205,0-11.236,5.028-11.236,11.239c0,6.214,5.031,11.239,11.236,11.239
				c6.214,0,11.245-5.025,11.245-11.239C1595.392,1108.245,1590.36,1103.217,1584.146,1103.217z"/>
			<path fill="#F8F8F8" d="M1530.168,1382.773c-6.203,0-11.24,5.028-11.24,11.239s5.037,11.245,11.24,11.245
				c6.211,0,11.233-5.034,11.233-11.245S1536.379,1382.773,1530.168,1382.773z"/>
		</g>
	</g>
	<g>
		<path opacity="0.15" d="M1440.631,1541.776c-1.467-17.483-18.136-30.558-35.344-33.979c-17.207-3.422-34.913,0.551-52.078,4.181
			c-203.092,42.946-415.958,38.971-617.304-11.53c-19.585-4.912-39.42-10.299-59.597-9.526
			c-20.177,0.773-41.196,8.783-52.464,25.538c-17.453,25.953-4.276,63.873,21.136,82.103c25.413,18.229,58.793,20.893,89.994,18.729
			c31.201-2.163,62.353-8.492,93.506-5.733c30.093,2.664,62.688,17.351,71.962,46.104c5.572,17.277-13.026,118.591,34.566,94.903
			c15.459-7.694,15.361-34.544,26.943-47.718c12.993-14.778,32.333-24.191,52.117-24.183c27.959,0.011,54.958,18.839,64.632,45.07
			c7.373,19.992,8.438,46.957,28.354,54.531c20.031,7.618,39.094-12.305,51.349-29.887c10.805-15.502,21.61-31.004,32.416-46.506
			c9.843-14.122,20.007-29.085,21.652-46.22s-8.68-36.722-25.754-38.912c57.404-17.046,116.871-27.131,176.685-29.965
			c16.933-0.803,34.398-1.136,49.912-7.97C1428.827,1573.971,1442.047,1558.669,1440.631,1541.776z"/>
		<g>
			<polygon fill="#031162" points="809.602,1401.678 1290.56,1380.689 1260.82,1489.393 980.784,1606.826 802.445,1527.336 			"/>
			<polygon fill="#FF654D" points="860.913,1355.662 865.085,1441.147 1232.591,1441.147 1241.854,1262.183 			"/>
			<path fill="#FF654D" d="M979.095,1023.695c0,0-156.937,31.813-185.803,55.509c-28.866,23.696-57.456,314.438-47.698,327.853
				c9.756,13.414,597.083,27.121,610.62,1.979c13.538-25.142-61.886-326.249-82.192-341.334S1028.838,1020.314,979.095,1023.695z"/>
			<path fill="#000D41" d="M1232.627,1331.311c-0.049,0-0.1-0.002-0.15-0.007c-0.951-0.083-1.654-0.92-1.573-1.872
				c4.792-55.387,0.044-211.372-0.005-212.94c-0.029-0.954,0.72-1.752,1.673-1.781c0.878-0.071,1.752,0.718,1.78,1.674
				c0.05,1.57,4.804,157.759-0.004,213.346C1234.27,1330.632,1233.514,1331.311,1232.627,1331.311z"/>
			<path fill="#000D41" d="M844.891,1325.637c-0.066,0-0.132-0.004-0.199-0.012c-0.948-0.109-1.629-0.965-1.521-1.914
				c7.496-65.571-6.017-200.259-6.155-201.611c-0.096-0.949,0.596-1.797,1.544-1.893c0.954-0.095,1.798,0.596,1.895,1.544
				c0.138,1.356,13.688,136.415,6.15,202.354C846.504,1324.985,845.757,1325.637,844.891,1325.637z"/>
			<path fill="#FEBAC7" d="M899.396,1394.97l-7.412-29.949c-0.509-2.055,0.673-4.15,2.695-4.777l10.146-3.148
				c1.417-0.44,2.475-1.63,2.745-3.09l1.723-9.302c0.351-1.895,2.003-3.269,3.93-3.269h8.298c1.378,0,2.659-0.71,3.39-1.879
				l5.06-8.096c1.15-1.84,3.56-2.427,5.427-1.319l9.606,5.692c1.226,0.727,2.745,0.745,3.989,0.05l5.639-3.154
				c1.826-1.021,4.13-0.462,5.284,1.282l20.206,30.536c1.25,1.889,0.683,4.436-1.249,5.616l-4.476,2.735
				c-1.654,1.01-3.794,0.688-5.078-0.764l0,0c-2.646-2.991-7.559-0.681-6.943,3.265l0.207,1.326c0.269,1.726-0.614,3.427-2.181,4.2
				l-39.625,19.555c-0.261,0.129-0.528,0.227-0.811,0.297c-2.486,0.617-14.658,3.17-20.016-4.534
				C899.684,1395.861,899.507,1395.421,899.396,1394.97z"/>
			<path fill="#FEBAC7" d="M1178.595,1394.97l7.412-29.949c0.508-2.055-0.674-4.15-2.695-4.777l-10.146-3.148
				c-1.418-0.44-2.475-1.63-2.745-3.09l-1.723-9.302c-0.351-1.895-2.003-3.269-3.93-3.269h-8.298c-1.378,0-2.659-0.71-3.39-1.879
				l-5.06-8.096c-1.15-1.84-3.56-2.427-5.427-1.319l-9.606,5.692c-1.226,0.727-2.745,0.745-3.988,0.05l-5.64-3.154
				c-1.825-1.021-4.13-0.462-5.284,1.282l-20.206,30.536c-1.249,1.889-0.683,4.436,1.249,5.616l4.477,2.735
				c1.654,1.01,3.794,0.688,5.078-0.764l0,0c2.646-2.991,7.559-0.681,6.942,3.265l-0.207,1.326c-0.27,1.726,0.614,3.427,2.181,4.2
				l39.625,19.555c0.261,0.129,0.527,0.227,0.811,0.297c2.485,0.617,14.658,3.17,20.016-4.534
				C1178.306,1395.861,1178.483,1395.421,1178.595,1394.97z"/>
			<path fill="#000D41" d="M891.869,1354.787c-0.084,0-0.168-0.007-0.254-0.02l-93.956-13.838c-0.945-0.139-1.598-1.018-1.458-1.962
				c0.14-0.942,1.021-1.602,1.961-1.456l93.956,13.838c0.945,0.138,1.597,1.017,1.458,1.961
				C893.449,1354.168,892.711,1354.787,891.869,1354.787z"/>
			<path fill="#000D41" d="M1194.397,1359.768c-0.821,0-1.551-0.588-1.699-1.426c-0.167-0.939,0.458-1.836,1.398-2.004
				l76.384-13.623c0.938-0.179,1.837,0.457,2.003,1.398c0.168,0.938-0.457,1.836-1.397,2.003l-76.384,13.623
				C1194.6,1359.759,1194.499,1359.768,1194.397,1359.768z"/>
			<g>
				<g>
					<path fill="#FEBAC7" d="M954.015,956.411c0,0-13.184,113.363,67.548,113.363c73.435,0,70.873-97.532,70.873-97.532
						s7.343-60.359-49.589-67.19C985.917,898.22,950.58,936.037,954.015,956.411z"/>
					<path fill="#031162" d="M1072.9,919.217c0,0-17.94,35.139,0.243,52.988c11.603,11.388,16.732,27.816,13.011,43.643l-0.199,0.85
						c0,0,30.483-24.146,36.131-73.106c5.646-48.961-16.567-79.773-35.378-76.296c0,0-7.485-37.614-55.265-34.097
						c-47.78,3.517-87.212-0.361-104.513,37.515c-17.302,37.876,12.856,71.045,12.856,71.045s2.354,40.086,18.662,74.962
						l-6.366-46.809C952.082,969.911,1004.583,899.384,1072.9,919.217z"/>
				</g>
				<path fill="#FEBAC7" d="M1091.524,978.318l-5.569,38.379c0,0,27.137-14.402,26.703-33.944
					c-0.146-6.514-2.406-10.112-5.356-12.014C1101.008,966.68,1092.601,970.906,1091.524,978.318z"/>
				<path fill="#FEBAC7" d="M954.173,967.281l4.7,49.416c0,0-26.077-15.111-25.642-34.653
					C933.665,962.503,954.173,967.281,954.173,967.281z"/>
			</g>
			<g>
				<path fill="#F8F8F8" d="M1167.759,1232.138H895.893c-11.953,0-21.642,9.689-21.642,21.642v179.423
					c0,11.952,9.689,21.641,21.642,21.641h271.866c11.952,0,21.642-9.688,21.642-21.641v-179.423
					C1189.4,1241.827,1179.711,1232.138,1167.759,1232.138z"/>
				<path fill="#746980" d="M1184.159,1465.324H879.492c-2.895,0-5.241-2.346-5.241-5.24l0,0c0-2.895,2.346-5.241,5.241-5.241
					h304.667c2.895,0,5.241,2.347,5.241,5.241l0,0C1189.4,1462.979,1187.054,1465.324,1184.159,1465.324z"/>
				<circle fill="#9E8FAE" cx="1136.59" cy="1459.688" r="2.234"/>
				<rect x="1110.935" y="1457.455" fill="#9E8FAE" width="18.028" height="4.468"/>
			</g>
			<g>
				<path fill="#1957C2" d="M708.422,1328.845l417.459,253.458c-33.607,27.286-52.313,62.938-59.835,104.868l-434.848-218.992
					c-43.773-22.044-57.474-77.995-28.838-117.771l0,0C626.669,1316.644,672.858,1307.253,708.422,1328.845z"/>
				<path fill="#031162" d="M1005.159,1620.776l-26.506,22.383l52.436,26.407c15.687-13.504,46.282-39.558,50.839-41.297
					C1088.095,1625.916,1005.159,1620.776,1005.159,1620.776z"/>
				<path fill="#031162" d="M1125.881,1582.303l69.528,39.176c5.188,2.924,6.998,9.514,4.035,14.68
					c-18.341,31.985-79.518,135.359-111.842,149.414c0,0-26.1-8.384-16.104-42.508c9.995-34.125-3.453-65.691-3.453-65.691
					S1070.313,1597.822,1125.881,1582.303z"/>
				<path fill="#2C4B80" d="M1087.602,1785.572c32.325-14.055,93.502-117.429,111.843-149.414c2.338-4.076,1.694-9.033-1.227-12.382
					C1185.797,1631.13,1131.995,1668.493,1087.602,1785.572z"/>
			</g>
			<g>
				<path fill="#1957C2" d="M1345.01,1357.461l-441.07,209.691c30.659,30.563,45.642,67.932,48.861,110.41l454.864-173.637
					c45.788-17.479,65.107-71.746,40.665-114.227v-0.001C1427.579,1353.637,1382.585,1339.598,1345.01,1357.461z"/>
				<path fill="#031162" d="M903.939,1567.152l-73.151,31.903c-5.459,2.38-7.929,8.752-5.507,14.192
					c14.994,33.685,65.34,142.744,96.068,160.013c0,0,26.817-5.686,20.343-40.649c-6.473-34.964,10.116-64.999,10.116-64.999
					S957.641,1588.243,903.939,1567.152z"/>
				<path fill="#2C4B80" d="M921.349,1773.262c-30.728-17.27-81.074-126.329-96.068-160.014c-1.911-4.293-0.767-9.158,2.48-12.192
					C839.37,1609.633,889.093,1652.274,921.349,1773.262z"/>
			</g>
			<g>
				<path fill="#FF654D" d="M746.334,1332.231c-3.118,40.544-3.731,70.713-0.741,74.825c2.743,3.771,51.139,7.565,119.602,10.514
					L746.334,1332.231z"/>
				<path fill="#FF654D" d="M1186.799,1422.768c92.915-1.072,164.781-5.126,169.415-13.731c3.315-6.156,1.294-28.864-3.944-59.862
					L1186.799,1422.768z"/>
			</g>
			<path fill="#000D41" d="M920.836,1560.848c-0.646,0-1.266-0.364-1.562-0.986c-0.409-0.862-0.043-1.893,0.819-2.303l79.114-37.612
				c0.864-0.41,1.894-0.042,2.304,0.818c0.41,0.863,0.043,1.894-0.819,2.304l-79.115,37.612
				C921.337,1560.794,921.085,1560.848,920.836,1560.848z"/>
		</g>
	</g>
	<g>
		<path fill="#FF654D" d="M714.008,488.947c0,11.121-9.015,20.136-20.136,20.136H508.32c-11.121,0-20.135-9.015-20.135-20.135
			V387.099c0-11.12,9.015-20.135,20.135-20.135h185.55c11.122,0,20.138,9.016,20.138,20.137V488.947z"/>
		<g>
			<polygon fill="#F8F8F8" points="571.239,477.847 585.951,477.847 628.281,398.201 613.569,398.201 			"/>
			<polygon fill="#F8F8F8" points="675.709,440.387 675.603,440.387 652.828,408.169 637.209,408.169 660.035,440.477 
				637.209,471.254 652.828,471.254 675.603,440.568 675.709,440.568 675.655,440.477 			"/>
			<polygon fill="#F8F8F8" points="526.484,440.387 526.59,440.387 549.362,408.169 563.634,408.169 540.807,440.477 
				563.634,471.254 549.362,471.254 526.59,440.568 526.484,440.568 526.537,440.477 			"/>
		</g>
	</g>
	<g>
		<path fill="#1957C2" d="M1553.695,681.637c0,13.3-10.781,24.082-24.082,24.082H1307.7c-13.3,0-24.081-10.781-24.081-24.081
			V559.831c0-13.299,10.781-24.081,24.081-24.081h221.911c13.302,0,24.084,10.783,24.084,24.083V681.637z"/>
		<g>
			<path fill="#F8F8F8" d="M1357.177,616.644c-0.905,1.207-2.527,2.489-4.863,3.848l-2.601,1.695
				c0.752,0.604,1.619,1.168,2.601,1.695c1.66,1.061,2.886,1.924,3.676,2.604s1.412,1.581,1.867,2.71
				c0.45,1.138,0.679,2.68,0.679,4.642v20.691c0,2.939,0.848,5.054,2.543,6.337c1.699,1.283,4.543,1.924,8.54,1.924v8.59h-3.959
				c-6.031,0-10.35-1.054-12.949-3.161c-2.6-2.115-3.901-5.658-3.901-10.636v-24.425c0-2.336-0.416-4.016-1.244-5.031
				c-0.829-1.023-2.111-1.527-3.845-1.527h-3.279v-8.711h3.279c1.733,0,3.016-0.504,3.845-1.527
				c0.828-1.016,1.244-2.695,1.244-5.032v-24.425c0-4.902,1.302-8.429,3.901-10.575c2.6-2.153,6.918-3.222,12.949-3.222h3.959v8.589
				c-3.997,0-6.841,0.642-8.54,1.924c-1.695,1.283-2.543,3.397-2.543,6.337v20.806
				C1358.535,613.483,1358.081,615.437,1357.177,616.644z"/>
			<path fill="#F8F8F8" d="M1496.874,617.888v8.711h-3.279c-1.736,0-3.02,0.504-3.848,1.527c-0.829,1.015-1.241,2.695-1.241,5.031
				v24.425c0,4.979-1.302,8.521-3.901,10.636c-2.604,2.107-6.921,3.161-12.949,3.161h-3.959v-8.59c3.993,0,6.841-0.641,8.536-1.924
				c1.699-1.283,2.547-3.397,2.547-6.337v-20.691c0-1.962,0.225-3.504,0.68-4.642c0.45-1.13,1.072-2.031,1.862-2.71
				c0.794-0.68,2.02-1.542,3.677-2.604c0.98-0.527,1.848-1.092,2.604-1.695l-2.604-1.695c-2.337-1.359-3.959-2.642-4.863-3.848
				c-0.905-1.207-1.355-3.161-1.355-5.879v-20.806c0-2.94-0.848-5.055-2.547-6.337c-1.695-1.283-4.543-1.924-8.536-1.924v-8.589
				h3.959c6.028,0,10.346,1.069,12.949,3.222c2.6,2.146,3.901,5.673,3.901,10.575v24.425c0,2.336,0.412,4.016,1.241,5.032
				c0.828,1.023,2.111,1.527,3.848,1.527H1496.874z"/>
		</g>
	</g>
	<g>
		<g>
			<g>
				<circle fill="#1957C2" cx="1432.191" cy="314.041" r="72.355"/>
			</g>
			<g>
				<path fill="#FFFFFF" d="M1398.739,296.461l-1.424,8.912l9.675,1.546l1.424-8.912l4.821,0.77l-3.414,21.364l-4.82-0.771
					l1.346-8.423l-9.675-1.546l-1.346,8.423l-4.823-0.771l3.414-21.364L1398.739,296.461z"/>
				<path fill="#FFFFFF" d="M1433.687,302.045l-0.653,4.09l-6.53-1.044l-2.761,17.274l-4.822-0.771l2.76-17.274l-6.501-1.039
					l0.653-4.09L1433.687,302.045z"/>
				<path fill="#FFFFFF" d="M1441.687,303.323l4.138,14.057l8.282-12.073l5.371,0.858l-3.414,21.364l-4.332-0.692l2.301-14.405
					l-7.632,11.331l-3.144-0.502l-3.722-13.145l-2.302,14.405l-4.363-0.697l3.413-21.364L1441.687,303.323z"/>
				<path fill="#FFFFFF" d="M1469.036,307.693l-2.741,17.152l9.155,1.463l-0.673,4.212l-13.978-2.233l3.413-21.364L1469.036,307.693
					z"/>
			</g>
		</g>
		<g>
			<g>
				<circle fill="#1957C2" cx="235.208" cy="533.798" r="57.915"/>
			</g>
			<g>
				<path fill="#FFFFFF" d="M213.731,548.952c-5.015-0.424-8.89-2.901-11.726-6.849l4.399-5.646c2.38,2.995,5.251,4.636,7.545,4.83
					c2.775,0.235,4.626-1.328,4.897-4.53l1.524-18.034l-12.859-1.087l0.604-7.15l21.341,1.804l-2.147,25.397
					C226.648,545.529,221.468,549.605,213.731,548.952z"/>
				<path fill="#FFFFFF" d="M249.354,520.85c-2.828-0.239-4.834,0.611-5.005,2.64c-0.582,6.882,19.644,4.724,18.455,18.165
					c-0.618,7.311-7.302,10.72-15.571,10.021c-6.137-0.519-12.073-3.384-15.986-7.315l3.942-6.598
					c3.554,3.74,8.81,6.386,12.759,6.72c3.467,0.293,5.657-0.81,5.851-3.104c0.595-7.044-19.653-4.618-18.535-17.85
					c0.573-6.775,6.75-10.552,15.394-9.822c5.228,0.442,10.322,2.486,13.848,5.256l-3.845,6.713
					C256.91,522.994,252.343,521.103,249.354,520.85z"/>
			</g>
		</g>
		<g>
			<path fill="#FFCB30" d="M1746.671,1488.148c0,10.265-8.32,18.585-18.585,18.585h-100.131c-10.264,0-18.585-8.32-18.585-18.584
				v-94.004c0-10.264,8.321-18.584,18.585-18.584h100.13c10.265,0,18.586,8.321,18.586,18.586V1488.148z"/>
			<g>
				<path fill="#FFFFFF" d="M1683.375,1406.482v6.941v2.484l2.369,0.746c1.418,0.447,2.821,1.032,4.171,1.739l2.206,1.155
					l1.761-1.761l4.901-4.901l7.536,7.535l-4.914,4.914l-1.758,1.758l1.149,2.203c0.708,1.357,1.291,2.762,1.732,4.173l0.743,2.376
					h2.489h6.924v10.656h-6.941h-2.484l-0.746,2.37c-0.446,1.416-1.031,2.819-1.739,4.169l-1.155,2.206l1.761,1.761l4.901,4.902
					l-7.535,7.535l-4.914-4.913l-1.757-1.758l-2.204,1.149c-1.357,0.708-2.762,1.291-4.173,1.732l-2.376,0.743v2.489v6.924h-10.656
					v-6.941v-2.484l-2.369-0.746c-1.417-0.447-2.82-1.032-4.17-1.739l-2.206-1.156l-1.761,1.762l-4.902,4.901l-7.535-7.535
					l4.914-4.914l1.758-1.758l-1.149-2.203c-0.708-1.357-1.291-2.762-1.732-4.173l-0.743-2.376h-2.489h-6.924v-10.656h6.941h2.483
					l0.747-2.369c0.446-1.417,1.031-2.82,1.739-4.17l1.155-2.206l-1.761-1.761l-4.902-4.902l7.535-7.535l4.914,4.914l1.758,1.757
					l2.204-1.149c1.357-0.708,2.761-1.291,4.172-1.732l2.376-0.743v-2.489v-6.924H1683.375 M1686.763,1403.096h-17.431v10.311
					c-1.645,0.515-3.223,1.178-4.728,1.962l-7.31-7.309l-12.325,12.325l7.297,7.297c-0.787,1.503-1.451,3.08-1.969,4.724h-10.329
					v17.432h10.312c0.515,1.645,1.177,3.223,1.962,4.728l-7.31,7.309l12.325,12.325l7.297-7.297c1.504,0.788,3.081,1.452,4.725,1.97
					v10.328h17.431v-10.311c1.645-0.515,3.223-1.177,4.728-1.962l7.309,7.309l12.326-12.325l-7.297-7.297
					c0.787-1.503,1.451-3.08,1.969-4.724h10.329v-17.431h-10.312c-0.515-1.646-1.177-3.224-1.961-4.728l7.309-7.31l-12.325-12.325
					l-7.298,7.297c-1.503-0.788-3.08-1.451-4.724-1.97V1403.096L1686.763,1403.096z"/>
				<path fill="#FFFFFF" d="M1678.021,1426.213c8.234,0,14.934,6.7,14.934,14.935c0,8.235-6.699,14.935-14.934,14.935
					c-8.235,0-14.935-6.699-14.935-14.935C1663.087,1432.913,1669.786,1426.213,1678.021,1426.213 M1678.021,1422.826
					c-10.119,0-18.322,8.203-18.322,18.321s8.203,18.321,18.322,18.321c10.118,0,18.32-8.203,18.32-18.321
					S1688.14,1422.826,1678.021,1422.826L1678.021,1422.826z"/>
			</g>
		</g>
		<g>
			<g>
				<circle fill="#FF654D" cx="1678.021" cy="509.083" r="71.495"/>
			</g>
			<g>
				<path fill="#FFFFFF" d="M1651.686,500.726c-5.601,0-9.941,4.34-9.941,10.034c0,5.693,4.341,10.079,9.941,10.079
					c2.938,0,6.158-1.493,8.491-3.827l4.341,4.714c-3.451,3.546-8.446,5.833-13.205,5.833c-9.754,0-17.126-7.234-17.126-16.707
					c0-9.427,7.513-16.519,17.406-16.519c4.711,0,9.658,2.099,12.878,5.413l-4.294,5.228
					C1657.939,502.405,1654.717,500.726,1651.686,500.726z"/>
				<path fill="#FFFFFF" d="M1680.229,500.539c-2.474,0-4.153,0.886-4.153,2.66c0,6.02,17.406,2.66,17.358,14.42
					c0,6.394-5.553,9.846-12.785,9.846c-5.367,0-10.735-2.053-14.42-5.18l2.939-6.02c3.359,2.987,8.118,4.899,11.573,4.899
					c3.031,0,4.852-1.119,4.852-3.125c0-6.162-17.406-2.568-17.406-14.141c0-5.926,5.087-9.66,12.647-9.66
					c4.573,0,9.147,1.401,12.412,3.547l-2.847,6.112C1686.948,501.846,1682.843,500.539,1680.229,500.539z"/>
				<path fill="#FFFFFF" d="M1709.939,500.539c-2.474,0-4.153,0.886-4.153,2.66c0,6.02,17.406,2.66,17.358,14.42
					c0,6.394-5.553,9.846-12.784,9.846c-5.368,0-10.735-2.053-14.421-5.18l2.939-6.02c3.359,2.987,8.118,4.899,11.573,4.899
					c3.031,0,4.852-1.119,4.852-3.125c0-6.162-17.406-2.568-17.406-14.141c0-5.926,5.087-9.66,12.647-9.66
					c4.574,0,9.147,1.401,12.412,3.547l-2.847,6.112C1716.658,501.846,1712.553,500.539,1709.939,500.539z"/>
			</g>
		</g>
		<g>
			<g>
				<circle fill="#9E8FAE" cx="940.69" cy="398.201" r="59.294"/>
			</g>
			<g>
				<path fill="#FFFFFF" d="M913.257,396.331c-1.724,0.518-2.67,1.618-2.22,3.116c1.526,5.078,12.806-1.403,15.757,8.53
					c1.622,5.395-1.373,9.471-6.414,10.986c-3.741,1.125-8.001,0.517-11.364-1.35l0.522-5.696c3.099,1.816,6.901,2.433,9.308,1.709
					c2.114-0.635,3.1-1.961,2.591-3.653c-1.563-5.199-12.784,1.479-15.719-8.286c-1.503-5,1.095-9.214,6.364-10.798
					c3.188-0.958,6.73-0.735,9.552,0.393l-0.434,5.752C918.272,396.026,915.08,395.784,913.257,396.331z"/>
				<path fill="#FFFFFF" d="M957.884,411.124c-1.188,2.419-3.316,4.305-5.528,4.97c-3.09,0.929-6.423-0.604-9.153-3.906
					c-6.858,1.848-13.763-2.602-16.13-10.477c-2.415-8.033,1.067-15.563,8.028-17.656c6.96-2.092,14.027,2.308,16.431,10.304
					c1.846,6.14,0.227,12.081-3.789,15.476c1.303,1.027,2.612,1.49,3.717,1.158c1.107-0.333,2.322-1.598,3.35-3.368L957.884,411.124
					z M941.96,406.638c3.806-1.144,5.759-5.854,4.304-10.695c-1.456-4.844-5.659-7.616-9.464-6.472
					c-3.838,1.154-5.914,5.813-4.458,10.656C933.797,404.969,938.154,407.782,941.96,406.638z"/>
				<path fill="#FFFFFF" d="M956.104,377.957l6.651,22.129l9.757-2.933l1.634,5.436l-14.896,4.478l-8.286-27.564L956.104,377.957z"
					/>
			</g>
		</g>
		<g>
			<g>
				<circle fill="#FFCB30" cx="1762.175" cy="855.854" r="41.366"/>
			</g>
			<g>
				<path fill="#FFFFFF" d="M1751.725,851.646c-3.261,0.021-5.771,2.562-5.75,5.878c0.021,3.314,2.563,5.852,5.824,5.832
					c1.713-0.011,3.581-0.893,4.932-2.259l2.544,2.729c-1.997,2.078-4.896,3.427-7.667,3.444c-5.68,0.036-9.999-4.149-10.033-9.664
					c-0.035-5.488,4.313-9.645,10.074-9.681c2.743-0.018,5.631,1.187,7.519,3.104l-2.481,3.058
					C1755.373,852.601,1753.49,851.635,1751.725,851.646z"/>
				<path fill="#FFFFFF" d="M1774.943,855.465l-0.463,4.107l3.668-0.023l-0.307,3.018l-3.723,0.023l-0.517,4.351l-3.015,0.019
					l0.516-4.35l-4.129,0.026l-0.517,4.35l-3.043,0.02l0.517-4.351l-3.695,0.023l0.307-3.018l3.75-0.023l0.463-4.107l-3.668,0.023
					l0.307-3.017l3.723-0.023l0.541-4.542l3.018-0.02l-0.542,4.542l4.128-0.026l0.542-4.541l3.044-0.019l-0.542,4.541l3.694-0.023
					l-0.279,3.017L1774.943,855.465z M1771.928,855.484l-4.129,0.026l-0.49,4.106l4.129-0.026L1771.928,855.484z"/>
			</g>
		</g>
		<g>
			<g>
				<circle fill="#1957C2" cx="282.238" cy="988.778" r="63.689"/>
			</g>
			<g>
				<path fill="#FFFFFF" d="M268.841,977.233c-5.533,0.034-9.796,4.348-9.762,9.979c0.038,5.628,4.355,9.936,9.888,9.9
					c2.909-0.019,6.082-1.516,8.375-3.835l4.317,4.632c-3.391,3.529-8.313,5.82-13.017,5.849
					c-9.642,0.063-16.975-7.042-17.034-16.407c-0.06-9.317,7.323-16.375,17.104-16.438c4.66-0.028,9.563,2.017,12.764,5.271
					l-4.209,5.192C275.036,978.853,271.84,977.214,268.841,977.233z"/>
				<path fill="#FFFFFF" d="M308.266,983.718l-0.788,6.973l6.227-0.041l-0.517,5.124l-6.321,0.041l-0.879,7.386l-5.121,0.031
					l0.876-7.386l-7.008,0.044l-0.879,7.386l-5.165,0.035l0.876-7.39l-6.276,0.041l0.523-5.123l6.365-0.041l0.788-6.973
					l-6.227,0.041l0.52-5.124l6.321-0.038l0.917-7.71l5.124-0.035l-0.92,7.711l7.008-0.044l0.92-7.711l5.168-0.031l-0.92,7.71
					l6.276-0.037l-0.479,5.12L308.266,983.718z M303.143,983.749l-7.008,0.044l-0.832,6.974l7.008-0.044L303.143,983.749z"/>
			</g>
		</g>
		<g>
			<circle fill="#9E8FAE" cx="1297.588" cy="471.254" r="66.03"/>
			<g>
				<path fill="#FFFFFF" d="M1274.14,464.434c-5.702,0-10.121,4.42-10.121,10.215s4.419,10.26,10.121,10.26
					c2.991,0,6.269-1.519,8.645-3.894l4.419,4.799c-3.514,3.608-8.599,5.938-13.443,5.938c-9.93,0-17.435-7.366-17.435-17.01
					c0-9.595,7.647-16.815,17.72-16.815c4.796,0,9.832,2.135,13.109,5.51l-4.37,5.322
					C1280.506,466.144,1277.226,464.434,1274.14,464.434z"/>
				<path fill="#FFFFFF" d="M1310.466,478.354h-8.125v8.028h-4.656v-8.028h-8.122v-4.845h8.122v-8.077h4.656v8.077h8.125V478.354z"
					/>
				<path fill="#FFFFFF" d="M1334.491,478.354h-8.125v8.028h-4.656v-8.028h-8.122v-4.845h8.122v-8.077h4.656v8.077h8.125V478.354z"
					/>
			</g>
		</g>
	</g>
	<path fill="#9E8FAE" d="M309.557,480.586l-1.636-0.133c0.266-3.265,0.605-6.572,1.008-9.826l1.629,0.202
		C310.158,474.061,309.821,477.344,309.557,480.586z M312.524,457.908l-1.616-0.292c0.58-3.215,1.236-6.471,1.951-9.677l1.602,0.356
		C313.751,451.48,313.1,454.714,312.524,457.908z M317.646,435.609l-1.581-0.441c0.875-3.134,1.833-6.317,2.845-9.459l1.563,0.503
		C319.467,429.335,318.517,432.497,317.646,435.609z M324.81,413.866l-1.535-0.584c1.166-3.065,2.407-6.149,3.688-9.167l1.51,0.641
		C327.201,407.755,325.968,410.819,324.81,413.866z M333.889,392.836l-1.478-0.716c1.427-2.944,2.932-5.908,4.473-8.812l1.45,0.77
		C336.802,386.964,335.307,389.911,333.889,392.836z M344.753,372.664l-1.411-0.839c1.678-2.821,3.429-5.648,5.203-8.401l1.38,0.889
		C348.162,367.049,346.422,369.859,344.753,372.664z M357.277,353.475l-1.336-0.954c1.912-2.677,3.89-5.348,5.88-7.939l1.302,1
		C361.144,348.158,359.177,350.813,357.277,353.475z M371.342,335.387l-1.253-1.06c2.118-2.507,4.308-5.007,6.509-7.432l1.216,1.104
		C375.626,330.409,373.449,332.896,371.342,335.387z M386.836,318.51l-1.164-1.159c2.31-2.318,4.695-4.632,7.092-6.875l1.121,1.198
		C391.504,313.905,389.132,316.205,386.836,318.51z M584.728,317.1c-3.284-0.003-6.631-0.405-9.947-1.195l0.381-1.597
		c3.191,0.761,6.41,1.148,9.568,1.15L584.728,317.1z M597.872,314.682l-0.612-1.523c3.042-1.222,5.754-2.913,8.065-5.023
		l1.107,1.211C603.976,311.591,601.096,313.386,597.872,314.682z M562.411,310.94c-2.955-1.735-5.637-3.779-7.975-6.076l1.151-1.17
		c2.241,2.201,4.817,4.164,7.655,5.83L562.411,310.94z M403.651,302.955l-1.064-1.25c2.493-2.123,5.06-4.232,7.63-6.269l1.019,1.286
		C408.681,298.747,406.128,300.843,403.651,302.955z M613.847,298.192l-1.54-0.569c1.088-2.937,1.7-6.091,1.819-9.372l1.641,0.059
		C615.641,291.767,614.996,295.092,613.847,298.192z M546.836,293.874c-0.169-0.395-0.331-0.792-0.483-1.194
		c-1.036-2.721-1.797-5.564-2.262-8.452l1.621-0.26c0.447,2.777,1.179,5.511,2.175,8.126c0.146,0.382,0.298,0.76,0.459,1.135
		L546.836,293.874z M421.685,288.839l-0.957-1.333c2.674-1.919,5.408-3.808,8.124-5.613l0.908,1.367
		C427.06,285.055,424.342,286.932,421.685,288.839z M440.833,276.286l-0.842-1.409c2.813-1.678,5.697-3.327,8.574-4.901l0.788,1.44
		C446.495,272.98,443.628,274.618,440.833,276.286z M612.293,275.601c-0.964-3.013-2.288-5.979-3.934-8.813l1.419-0.825
		c1.707,2.938,3.079,6.012,4.079,9.139L612.293,275.601z M545.564,271.12l-1.627-0.211c0.421-3.231,1.173-6.506,2.236-9.736
		l1.559,0.513C546.702,264.817,545.972,267.992,545.564,271.12z M460.985,265.424l-0.714-1.478c2.961-1.432,5.979-2.821,8.971-4.129
		l0.658,1.504C466.926,262.621,463.927,264.001,460.985,265.424z M600.426,256.659c-2.288-2.207-4.769-4.129-7.371-5.715
		l-0.27-0.164l0.841-1.41l0.284,0.172c2.704,1.649,5.279,3.646,7.655,5.935L600.426,256.659z M482.022,256.392l-0.58-1.537
		c3.067-1.155,6.201-2.266,9.313-3.298l0.518,1.558C488.181,254.141,485.068,255.243,482.022,256.392z M553.119,249.929
		l-1.411-0.838c1.53-2.572,3.263-5.076,5.158-7.455c-2.594-0.049-5.234-0.01-7.982,0.115l-0.075-1.64
		c3.429-0.157,6.682-0.182,9.913-0.066l-0.059,1.641c-0.108-0.004-0.217-0.007-0.325-0.012l0.365,0.3
		C556.637,244.496,554.758,247.173,553.119,249.929z M503.8,249.325l-0.433-1.583c3.176-0.868,6.402-1.678,9.588-2.409l0.368,1.6
		C510.158,247.659,506.953,248.463,503.8,249.325z M581.024,245.421c-2.973-0.983-6.145-1.785-9.429-2.383l0.295-1.614
		c3.357,0.611,6.604,1.432,9.65,2.438L581.024,245.421z M526.159,244.359l-0.278-1.618c2.409-0.414,4.861-0.794,7.289-1.132
		c0.829-0.115,1.662-0.227,2.497-0.332l0.207,1.627c-0.828,0.105-1.654,0.216-2.477,0.331
		C530.985,243.571,528.55,243.949,526.159,244.359z M567.85,232.804l-1.042-1.268c2.594-2.131,5.34-4.055,8.163-5.718l0.833,1.414
		C573.054,228.853,570.378,230.727,567.85,232.804z M731.919,227.584c-2.731,0-5.575-0.076-8.454-0.224l0.085-1.639
		c2.85,0.146,5.666,0.221,8.369,0.221l1.425-0.006l0.016,1.641L731.919,227.584z M710.332,226.252
		c-3.089-0.354-6.292-0.776-9.79-1.292l0.239-1.624c3.48,0.513,6.666,0.933,9.738,1.285L710.332,226.252z M687.558,222.859
		c-2.833-0.489-5.667-0.992-8.5-1.494l-1.204-0.213l0.287-1.616l1.204,0.213c2.831,0.502,5.661,1.004,8.493,1.493L687.558,222.859z
		 M587.524,221.667l-0.582-1.535c3.027-1.147,6.213-2.155,9.47-2.997l0.411,1.588C593.624,219.552,590.495,220.542,587.524,221.667z
		 M664.924,218.922c-3.543-0.582-6.722-1.069-9.716-1.489l0.228-1.626c3.007,0.422,6.198,0.911,9.753,1.495L664.924,218.922z
		 M609.614,216.288l-0.21-1.627c3.171-0.409,6.493-0.702,9.872-0.871l0.083,1.639C616.022,215.597,612.743,215.886,609.614,216.288z
		 M642.206,215.945c-3.346-0.287-6.64-0.488-9.788-0.596l0.055-1.641c3.177,0.109,6.499,0.311,9.873,0.601L642.206,215.945z"/>
	<path fill="#9E8FAE" d="M1529.68,476.805l-0.954-1.336c2.622-1.87,5.188-3.916,7.627-6.08l1.091,1.229
		C1534.959,472.819,1532.347,474.901,1529.68,476.805z M1546.722,461.187l-1.243-1.071c2.106-2.445,4.126-5.036,6.006-7.702
		l1.341,0.946C1550.916,456.069,1548.862,458.703,1546.722,461.187z M1559.754,442.094l-1.448-0.771
		c1.521-2.854,2.932-5.823,4.192-8.827l1.514,0.636C1562.729,436.181,1561.297,439.196,1559.754,442.094z M1568.382,420.652
		l-1.579-0.448c0.888-3.135,1.638-6.336,2.228-9.512l1.614,0.299C1570.045,414.217,1569.284,417.467,1568.382,420.652z
		 M1572.241,397.861l-1.638-0.094c0.109-1.903,0.164-3.834,0.164-5.74c0.002-1.343-0.025-2.684-0.081-4.024l1.641-0.067
		c0.056,1.363,0.083,2.727,0.082,4.092C1572.409,393.965,1572.354,395.928,1572.241,397.861z M1569.27,375.071
		c-0.576-3.203-1.33-6.396-2.24-9.494l1.576-0.462c0.926,3.152,1.692,6.405,2.278,9.667L1569.27,375.071z M1562.464,353.405
		c-1.343-2.92-2.869-5.826-4.536-8.636l1.413-0.838c1.696,2.86,3.249,5.816,4.614,8.789L1562.464,353.405z M1550.552,334.049
		c-2.002-2.535-4.162-5.013-6.416-7.364l1.185-1.136c2.29,2.39,4.484,4.906,6.521,7.483L1550.552,334.049z M1534.556,317.864
		c-2.518-2.046-5.161-4-7.858-5.809l0.915-1.364c2.737,1.837,5.423,3.822,7.979,5.898L1534.556,317.864z M1515.461,305.47
		c-2.905-1.473-5.902-2.822-8.906-4.011l0.602-1.526c3.054,1.207,6.098,2.577,9.047,4.072L1515.461,305.47z M1494.17,297.448
		c-3.157-0.805-6.375-1.456-9.567-1.937l0.244-1.623c3.246,0.489,6.519,1.152,9.727,1.97L1494.17,297.448z M1461.892,294.879
		l-0.16-1.634c2.932-0.288,5.928-0.433,8.906-0.433l1.019,0.006l-0.019,1.641l-1-0.005
		C1467.713,294.455,1464.771,294.597,1461.892,294.879z"/>
	<path fill="#9E8FAE" d="M1748.17,960.86c-1.48,0-2.963-0.015-4.447-0.042l0.029-1.641c3.279,0.059,6.551,0.054,9.813-0.023
		l0.039,1.641C1751.795,960.838,1749.983,960.859,1748.17,960.86z M1730.564,960.254c-3.194-0.211-6.505-0.482-9.84-0.803
		l0.156-1.634c3.318,0.321,6.612,0.589,9.791,0.8L1730.564,960.254z M1766.766,960.072l-0.143-1.636
		c3.286-0.289,6.563-0.666,9.739-1.12l0.231,1.625C1773.389,959.398,1770.083,959.779,1766.766,960.072z M1707.651,957.967
		c-3.259-0.422-6.516-0.878-9.769-1.362l0.24-1.624c3.244,0.483,6.491,0.938,9.74,1.358L1707.651,957.967z M1789.57,956.563
		l-0.361-1.602c3.196-0.721,6.387-1.549,9.48-2.459l0.463,1.574C1796.025,954.997,1792.801,955.833,1789.57,956.563z
		 M1684.896,954.541c-3.243-0.545-6.48-1.107-9.713-1.681l0.286-1.616c3.226,0.571,6.46,1.134,9.7,1.677L1684.896,954.541z
		 M1811.604,949.625l-0.641-1.512c2.981-1.262,5.956-2.67,8.845-4.184l0.761,1.453
		C1817.644,946.917,1814.627,948.345,1811.604,949.625z M1831.931,938.622l-0.915-1.364c2.702-1.811,5.358-3.753,7.896-5.771
		l1.022,1.284C1837.361,934.816,1834.668,936.785,1831.931,938.622z M1849.805,923.984l-1.159-1.162
		c2.324-2.315,4.548-4.736,6.611-7.194l1.257,1.055C1854.419,919.179,1852.163,921.635,1849.805,923.984z M1864.36,906.042
		l-1.384-0.885c1.776-2.772,3.4-5.623,4.828-8.471l1.468,0.736C1867.819,900.321,1866.167,903.221,1864.36,906.042z
		 M1874.284,885.17l-1.563-0.5c0.996-3.114,1.793-6.289,2.371-9.438l1.614,0.296C1876.116,878.746,1875.301,881.99,1874.284,885.17z
		 M1876.284,862.328c0-3.222-0.22-6.424-0.651-9.571l1.606-0.365l0.02,0.137c0.443,3.226,0.666,6.502,0.666,9.744L1876.284,862.328z
		 M1872.715,839.985c-0.979-3.035-2.176-6.082-3.56-9.054l1.487-0.693c1.413,3.035,2.636,6.145,3.635,9.244L1872.715,839.985z
		 M1862.803,819.592c-1.744-2.65-3.687-5.303-5.77-7.886l1.279-1.03c2.114,2.624,4.087,5.32,5.86,8.013L1862.803,819.592z
		 M1848.291,802.033c-2.253-2.241-4.673-4.48-7.19-6.655l1.074-1.242c2.545,2.2,4.993,4.465,7.274,6.733L1848.291,802.033z
		 M1830.864,787.251c-2.566-1.881-5.281-3.758-8.066-5.58l0.898-1.374c2.81,1.839,5.547,3.732,8.138,5.629L1830.864,787.251z
		 M1811.631,774.86c-2.793-1.588-5.696-3.158-8.631-4.667l0.752-1.46c2.952,1.52,5.877,3.101,8.689,4.7L1811.631,774.86z
		 M1791.247,764.391c-2.958-1.411-5.932-2.798-8.913-4.175l0.69-1.491c2.984,1.38,5.965,2.771,8.929,4.185L1791.247,764.391z
		 M1770.4,754.74c-2.988-1.371-5.974-2.748-8.945-4.14l0.696-1.486c2.969,1.391,5.948,2.765,8.933,4.133L1770.4,754.74z
		 M1749.609,744.889c-3.137-1.564-6.006-3.045-8.771-4.527l0.775-1.447c2.752,1.475,5.606,2.949,8.729,4.506L1749.609,744.889z
		 M1729.392,733.849c-2.886-1.749-5.688-3.544-8.325-5.335l0.921-1.357c2.615,1.775,5.393,3.555,8.253,5.29L1729.392,733.849z
		 M1710.454,720.672c-2.6-2.099-5.117-4.282-7.482-6.491l1.12-1.199c2.337,2.182,4.824,4.339,7.395,6.413L1710.454,720.672z
		 M1693.95,704.492c-2.063-2.55-4.033-5.248-5.853-8.019l1.37-0.902c1.79,2.726,3.729,5.38,5.759,7.887L1693.95,704.492z
		 M1681.565,684.965c-1.446-2.988-2.749-6.064-3.872-9.142l1.543-0.563c1.104,3.026,2.385,6.05,3.808,8.99L1681.565,684.965z
		 M1674.061,663.091c-0.679-3.294-1.155-6.605-1.416-9.84l1.638-0.132c0.254,3.168,0.721,6.412,1.387,9.64L1674.061,663.091z
		 M1674.44,640.17l-1.631-0.181c0.371-3.361,1.007-6.654,1.89-9.791l1.578,0.444C1675.422,633.693,1674.803,636.898,1674.44,640.17z
		 M1681.229,618.73l-1.426-0.811c1.638-2.883,3.563-5.636,5.723-8.184l1.254,1.061
		C1684.685,613.267,1682.817,615.937,1681.229,618.73z"/>
	<path fill="#9E8FAE" d="M370.54,1109.646c-3.216-0.567-6.475-1.266-9.686-2.071l0.4-1.592c3.173,0.797,6.394,1.485,9.57,2.046
		L370.54,1109.646z M348.209,1103.779c-3.081-1.081-6.186-2.287-9.228-3.587l0.645-1.511c3.009,1.287,6.08,2.48,9.127,3.548
		L348.209,1103.779z M327.085,1094.475c-2.892-1.55-5.776-3.217-8.572-4.955l0.866-1.393c2.767,1.719,5.62,3.367,8.481,4.898
		L327.085,1094.475z M307.611,1082.077c-2.631-1.967-5.235-4.043-7.737-6.176l1.064-1.25c2.476,2.109,5.052,4.165,7.656,6.11
		L307.611,1082.077z M290.202,1066.922c-2.321-2.35-4.584-4.793-6.727-7.264l1.24-1.074c2.119,2.441,4.358,4.86,6.655,7.186
		L290.202,1066.922z M275.272,1049.318c-1.931-2.668-3.792-5.432-5.531-8.215l1.392-0.869c1.72,2.751,3.561,5.483,5.469,8.12
		L275.272,1049.318z M263.267,1029.598c-1.483-2.947-2.873-5.975-4.133-9l1.516-0.632c1.245,2.99,2.619,5.981,4.084,8.894
		L263.267,1029.598z"/>
	<path fill="#9E8FAE" d="M1228.239,491.55l-1.621-0.262c0.522-3.236,0.991-6.507,1.395-9.719l1.628,0.204
		C1229.236,485.005,1228.765,488.294,1228.239,491.55z M1230.957,468.666l-1.638-0.122c0.246-3.299,0.427-6.596,0.534-9.8
		l1.641,0.056C1231.385,462.025,1231.204,465.345,1230.957,468.666z M1229.917,445.662c-0.083-3.303-0.244-6.599-0.479-9.796
		l1.638-0.12c0.235,3.223,0.396,6.545,0.481,9.875L1229.917,445.662z M1228.044,422.868c-0.464-3.252-1.021-6.504-1.652-9.661
		l1.608-0.322c0.64,3.187,1.199,6.468,1.668,9.752L1228.044,422.868z M1223.327,400.508c-0.861-3.027-1.82-6.05-2.851-8.984
		l-0.123-0.354l1.549-0.539l0.121,0.342c1.043,2.973,2.013,6.027,2.882,9.086L1223.327,400.508z M1215.428,379.087
		c-1.362-2.945-2.848-5.885-4.42-8.735l1.438-0.792c1.589,2.885,3.094,5.858,4.473,8.839L1215.428,379.087z M1204.175,359.234
		c-1.841-2.693-3.796-5.342-5.813-7.871l1.282-1.024c2.044,2.561,4.023,5.243,5.886,7.969L1204.175,359.234z M1189.719,341.601
		c-2.3-2.335-4.701-4.585-7.138-6.685l1.071-1.243c2.471,2.129,4.904,4.409,7.234,6.776L1189.719,341.601z M1068.235,339.824
		c-1.484,0-2.96-0.108-4.388-0.322l0.244-1.623c3.049,0.455,6.307,0.394,9.538-0.18l0.286,1.617
		C1072.017,339.652,1070.105,339.824,1068.235,339.824z M1086.414,334.598l-0.843-1.41c2.781-1.663,5.319-3.666,7.541-5.955
		l1.178,1.145C1091.968,330.769,1089.318,332.861,1086.414,334.598z M1058.2,333.602l-1.166-1.157
		c2.314-2.329,4.828-4.541,7.473-6.573l0.999,1.302C1062.92,329.162,1060.462,331.325,1058.2,333.602z M1172.236,326.992
		c-2.705-1.831-5.508-3.546-8.332-5.097l0.791-1.439c2.868,1.576,5.715,3.317,8.462,5.177L1172.236,326.992z M1076.433,320.172
		l-0.769-1.45c2.891-1.531,5.933-2.917,9.045-4.121l0.592,1.532C1082.249,317.313,1079.266,318.672,1076.433,320.172z
		 M1101.611,317.198l-1.523-0.61c0.086-0.217,0.169-0.433,0.251-0.652c0.522-1.417,0.958-2.875,1.304-4.364
		c-1.313,0.235-2.614,0.499-3.9,0.789l-0.361-1.602c1.522-0.343,3.065-0.648,4.619-0.917c0.156-0.852,0.282-1.711,0.38-2.578
		l1.631,0.182c-0.08,0.709-0.178,1.415-0.295,2.116c1.149-0.176,2.302-0.332,3.455-0.466l0.189,1.631
		c-1.325,0.154-2.651,0.337-3.97,0.549c-0.381,1.788-0.888,3.536-1.513,5.228C1101.794,316.735,1101.704,316.967,1101.611,317.198z
		 M1152.112,316.371c-3.071-1.197-6.147-2.208-9.256-3.046l0.427-1.585c3.167,0.855,6.299,1.883,9.308,3.056l-0.171,0.814
		L1152.112,316.371z M1130.09,310.824c-3.21-0.4-6.486-0.639-9.735-0.708l0.036-1.641c3.304,0.07,6.636,0.313,9.9,0.72
		L1130.09,310.824z M1101.766,294.452c-0.626-3.112-1.59-6.218-2.866-9.233l1.511-0.64c1.32,3.117,2.317,6.33,2.964,9.549
		L1101.766,294.452z M1092.42,274.074c-1.976-2.591-4.186-4.98-6.57-7.103l1.091-1.226c2.464,2.191,4.746,4.659,6.785,7.333
		L1092.42,274.074z M976.929,261.878l-0.46-1.576c3.147-0.922,6.303-1.845,9.465-2.745l0.449,1.579
		C983.224,260.035,980.073,260.958,976.929,261.878z M1075.267,259.562c-2.776-1.526-5.752-2.883-8.843-4.036l0.573-1.538
		c3.166,1.18,6.214,2.571,9.061,4.135L1075.267,259.562z M999.037,255.729l-0.397-1.594c3.412-0.851,6.563-1.572,9.632-2.205
		l0.332,1.608C1005.555,254.165,1002.427,254.882,999.037,255.729z M1053.918,252.051c-3.125-0.601-6.377-1.042-9.668-1.311
		l0.133-1.636c3.35,0.273,6.662,0.723,9.844,1.335L1053.918,252.051z M1021.489,251.383l-0.202-1.629
		c3.369-0.419,6.689-0.708,9.87-0.859l0.078,1.639C1028.098,250.684,1024.817,250.969,1021.489,251.383z"/>
</g>
</svg>
